<svg id="Layer_1" data-name="Layer 1" xmlns="http://www.w3.org/2000/svg" viewBox="0 0 1024 1024"><defs><style>.cls-1{fill:#383838;}.cls-2{fill:#fff;}</style></defs><title>Logo</title><rect class="cls-1" width="1024" height="1024" rx="57.4"/><path class="cls-2" d="M454.5,862.34c15.75,0,31.49.17,47.24,0,3.47,0,5,.48,4.81,4.47-.32,9.19-.21,18.4,0,27.59.06,3-.36,4.25-3.91,4.25q-104.57-.18-209.13,0c-3.27,0-4.18-.81-4.1-4.1q.35-14.05,0-28.13c-.08-3.34,1-4.12,4.2-4.08,14.33.17,28.67-.07,43,.17,3.78.06,4.58-1,4.58-4.69q-.13-109.33.11-218.69c0-4.57-1.66-5-5.47-5q-65.57.18-131.11,0c-2,0-5.19,1.19-5.79-.94-.87-3.12-.54-6.71-.06-10,.22-1.5,2.47-.81,3.81-.81,10.61,0,21.23,0,31.84,0,38.75,0,77.5.08,116.25-.09,4.18,0,5.15,1.07,5.14,5.18q-.18,121,0,242c0,4.1-.94,5.38-5.19,5.29-13.8-.28-27.61.17-41.4-.25-5.05-.15-5.88,1.63-5.63,6,.21,3.76-.26,6.3,5.33,6.28q88.9-.39,177.81-.06c3.91,0,5.17-.83,5-4.89-.32-7.2-.05-7.12-7.3-7.24-14.66-.22-29.32.62-44-.42-.82-1.86-.41-3.83-.41-5.75q0-72.37,0-144.74a36,36,0,0,1,.58-7.9c.83-3.76,2.67-4.67,6.08-2.84,4.6,2.47,7.3,5.65,7.27,11.65-.27,44-.16,88-.12,132C453.9,858.56,453.3,860.56,454.5,862.34Z"/><path class="cls-2" d="M454.5,862.34c-2-1.68-1.1-4-1.11-6q-.08-65.46,0-130.93c0-4.8-4.45-11-8.78-12.26-1.95-.57-2.48.71-2.83,2.19a38,38,0,0,0-1.16,8.86q0,75-.05,150c-1.89-1.29-.92-3.23-.92-4.82q-.06-121-.11-242.07c0-4.38,1.38-5.07,5.3-5.05q40.35.26,80.69,0c3.25,0,5,1,6.62,3.79q72.48,127.5,145,254.95c2.34,4.12,4.8,5.8,9.74,5.77,39.81-.23,79.62-.28,119.43.06,6,.05,4.79-3.1,5-6.5.2-3.68.24-6.14-5-5.95-12.37.46-24.77.08-37.15.22-2.92,0-4.78-.63-6.34-3.37Q738.29,828,713.5,784.89a2.74,2.74,0,0,1-.11-1,5.66,5.66,0,0,0-.09-2.09c-.38-1.18-.81-2.45.4-3.37s2.73-.33,3.93.36a76.35,76.35,0,0,1,13.88,10.36c4.65,7.91,9.33,15.79,13.92,23.73,8.69,15,17.44,30,25.92,45.13,1.86,3.31,3.84,4.69,7.76,4.62,14.14-.25,28.3,0,42.45-.16,3.43,0,4.56.84,4.47,4.39-.25,9-.21,18.05,0,27.07.08,3.29-.58,4.58-4.27,4.57q-73.51-.18-147,.06c-3.67,0-4.8-1.91-6.23-4.43-46.76-82.2-93.76-164.26-140.06-246.71-5.63-10-11.23-14.42-23-13.49-15.47,1.23-31.12.39-46.68.25-3.27,0-4.54.56-4.53,4.24Q454.51,750.36,454.5,862.34Z"/><path class="cls-2" d="M746.21,553.32c0-16.46.1-32.91-.07-49.36,0-3.55.69-4.85,4.57-4.82,13.5.08,13.5-.09,13.5,13.39,0,9.37.13,18.75-.06,28.13-.07,3.3,1,4.18,4.23,4.14,11.67-.18,23.36-.2,35,0,3.5.06,4.53-1,4.48-4.47-.2-12.21,0-24.42-.14-36.62,0-3.25.55-4.58,4.27-4.58,13.8,0,13.8-.17,13.8,13.61,0,29.73-.09,59.45.1,89.18,0,4.39-1.14,5.65-5.55,5.56-12.56-.25-12.56-.06-12.56-12.73,0-10.44-.22-20.88.11-31.31.13-4.17-1.27-5-5.09-4.87-11.32.25-22.65.23-34,0-3.65-.08-4.81.83-4.74,4.63.24,13.27,0,26.54.17,39.81.05,3.49-1,4.44-4.49,4.45-13.59,0-13.59.18-13.59-13.28Z"/><path class="cls-2" d="M552.1,128.69c16.63.49,33,3.3,49.28,6.22,26.48,4.73,52.22,11.87,76.72,23.24,48.64,22.58,78.46,60.23,90.68,112.23,5.37,22.86,6.92,46,6.09,69.42a23.45,23.45,0,0,1-.66,3.58c-2.4-2.26-1.4-5.23-1.65-7.94a12.17,12.17,0,0,1,0-2.63c1.25-9.38-.69-17.07-10.66-20.68-.8-.29-1.18-1.26-1.7-2-1.78-9.52-2.3-19.2-4.05-28.76-10.33-56.12-41.2-95.5-94.28-117.23-28.12-11.5-57.49-17.76-87.45-21.77-4.7-.63-9.38-1.34-14.06-2,1.55-1.45,2.51-2.78.1-4.46a28.66,28.66,0,0,0-5.94-3.15C552.8,132.11,550.78,131.3,552.1,128.69Z"/><path class="cls-2" d="M340.55,470.4c.08-1.94.22-3.88.22-5.82q.08-122.07.24-244.15c0-5-1.41-6-6.09-5.93-43.7.2-87.39.05-131.09.28-4.73,0-5.63-1.56-5.28-5.71.29-3.5-.68-6.46,5.15-6.42,49.18.31,98.36.26,147.54.12,4.32,0,5.18,1.29,5.18,5.33q-.06,134.28.21,268.56c0,4.32-1,5.64-5.47,5.62-48.65-.18-97.31-.12-146-.15-7.58,0-6.67,1-6.62-6.84,0-1.54-1.15-3.53,1-4.68a5.06,5.06,0,0,1,.89,1.31c2.57,7.52,2.57,7.53,10.81,7.53H346.67c6.93-.09,7.23-.36,7.29-7.13.11-12.92-.17-25.84.14-38.76-.24-35-.13-70,0-104.94,0-5.43-1.85-9.08-6.47-11.68-2.66-1.5-3.92-1-4,2.11-.07,1.77-.05,3.54-.05,5.3-.08,33.93.16,67.85-.12,101.77.34,12.71.19,25.43.06,38.14C343.45,466.54,344.4,469.75,340.55,470.4Z"/><path class="cls-2" d="M464.7,499.24c6.86,0,13,.08,19.13,0,2.51,0,3.2,1.72,4.2,3.37,7.63,12.49,15.28,25,23.35,38.18,5.27-8.73,10.24-17,15.2-25.19l2.18-3.64c8.63-14.37,8.91-14.5,27-12.14-3.11,5.12-6,10-9.06,14.91q-12.16,19.56-24.43,39a13,13,0,0,0-2.08,7.44c.1,13.8-.13,27.61.15,41.4.09,4.15-1.24,5.27-5.08,4.84-4.16-.47-9.66,1.74-12.22-.83s-.7-8.06-.74-12.25c-.11-10.09-.17-20.18,0-30.26a16.56,16.56,0,0,0-2.83-9.85c-10.74-16.6-21.31-33.31-31.92-50C466.68,502.83,465.89,501.32,464.7,499.24Z"/><path class="cls-2" d="M511.55,484.32c-24,.32-48,.63-72-.1-1-1.82-.51-3.8-.52-5.7q-.06-53.11,0-106.24c0-2.47,1.76-2.57,3.19-1.74,4.74,2.78,10,5,13.26,9.76.83,2.77.6,5.62.6,8.44q0,35.83,0,71.67c0,8,.4,8.42,8.34,8.44,11.68,0,23.35.07,35,0,5.78,0,6.2-.61,6.37-6.47.28-9.54-.62-19.1.54-28.62,1.36-3.21,3.62-2.06,5.63-1a45.79,45.79,0,0,1,9.18,7l0,42.5C518.47,485.14,514.59,482.79,511.55,484.32Z"/><path class="cls-2" d="M478.84,199.7c40-.45,80.13-2.17,119.25,9.49,43.26,12.89,68.23,42.53,73,87.32.37,3.49,1.56,6.91.92,10.5-2.34,1.48-4.06-.18-5.73-1.33-2.88-2-4.11-.77-4.79,2.1-1.11,4.72-.35,9.53-.77,14.27-.17,1.89,1.1,5-2.73,5-2-3.29-1.2-6.92-1.1-10.38a119.86,119.86,0,0,0-5.73-41.24c-8.1-24.72-24.71-41.17-48.87-50.09-20.76-7.66-42.41-10.3-64.4-11.53-15.16-.85-30.34-.29-45.48-1.48-3.23-2.64-6.66-5-10.1-7.41C480.52,203.71,478.3,202.55,478.84,199.7Z"/><path class="cls-2" d="M731.51,789.1c-4.75-.64-7-5.22-11-7.06-2.06-.95-3.57-2.91-6-3.26-1.75,1.43,1.39,3.93-1.18,5.06C703,765.88,692.59,748,682.3,730q-29.77-52-59.42-104.1c-.51-.9-1-1.81-1.83-3.31h40.42c3.58,1.86,6.4,4.77,9.68,7.06,1.42,1,2.75,2.26,2,4.35-8.13.07-16.26.29-24.39.14-4-.08-5,.38-2.72,4.41q29.81,51.75,59.29,103.68,12.7,22.26,25.42,44.51C731.17,787.47,731.81,788.12,731.51,789.1Z"/><path class="cls-2" d="M753,415.68c-9.67,18.38-22.76,34-39.28,48.34,2.95.13,4.79.28,6.63.28,33.43,0,66.86.15,100.29-.05,4.7,0,5.59,1.58,5.37,5.75-.19,3.74.27,6.45-5.29,6.42-40-.21-79.94,0-119.92,0-3.65,0-10.22-5.75-10.66-9.3-.27-2.15,1.72-2.44,2.88-3.31,16.29-12.11,30.63-26.15,42.18-42.9,3.17-4.6,5.92-9.49,8.87-14.25C750,406.15,753.77,409.91,753,415.68Z"/><path class="cls-2" d="M340.55,470.4c2.15-1.34,1.25-3.5,1.26-5.29.09-13.06.07-26.11.08-39.16,2.34-1.59,4,.21,5.7,1.27a39.17,39.17,0,0,1,7.82,6.26c0,14.5,0,29,.2,43.5.05,3.31-1.13,4.2-4.3,4.19q-73.74-.12-147.48,0c-3.16,0-4.62-.88-4.3-4.2.2-2.1.05-4.24.06-6.36,11.12-.08,22.24-.22,33.36-.22Q286.76,470.36,340.55,470.4Z"/><path class="cls-2" d="M478.84,199.7c2,3.82,6.11,5.17,9.25,7.64,1.48,1.16,3.62,1.73,3.51,4.2-2.06,1.84-4.62,1.52-7.06,1.55-7.25.07-14.49,0-21.74,0-6,.07-6.63.65-6.66,6.79-.09,19.44,0,38.88-.05,58.32,0,2.8.38,5.68-1.13,8.29-3.11,2.18-5.2-.33-7.56-1.65-1.64-.92-3.13-3.24-5-2.31-2.21,1.09-1.18,3.8-1.19,5.8-.06,24.75,0,49.5-.06,74.25,0,2.79.4,5.69-1.33,8.23q-.1,56.67-.23,113.36c-1.82-1.34-.86-3.27-.86-4.87q0-137.22.07-274.43c0-4.43,1.14-5.72,5.57-5.57C455.84,199.73,467.35,199.62,478.84,199.7Z"/><path class="cls-2" d="M673.14,634c-2-4.46-7-5.54-9.91-9-.64-.77-1.67-1.21-1.76-2.39,20.14-.06,40.28-.16,60.42-.18,33,0,66.09.15,99.13-.12,5.23,0,5,2.4,5,6s.3,6.06-5,6c-48.06-.21-96.12-.1-144.19-.09C675.6,634.21,674.37,634.05,673.14,634Z"/><path class="cls-2" d="M552.1,128.69c.13,1.53.79,2.8,2.4,2.94,3,.26,5.12,1.84,7.2,3.74,1.2,1.09,3.57,1.46,2.79,3.73-.66,1.91-2.75.82-4.13,1.3-118-7.06-236.09-1.58-354.12-3.2-8.32-.11-10-3-6.64-11.62a4.14,4.14,0,0,1,.91,1.29c2.51,7.45,2.51,7.44,10.32,7.46,43.14.1,86.28-.2,129.41.14,34.84-.13,69.7,0,105-.1-1.36-3.74-6.52-4.36-5.64-8.78,35.63-.49,71.25-.52,106.81,2.16C548.29,127.9,550.19,128.37,552.1,128.69Z"/><path class="cls-2" d="M340.75,136q-66.58,0-133.18.08c-8.89,0-7.94,1.12-8-7.84,0-.88,0-1.77,0-2.65q42.83-.08,85.65-.15c15,0,30,.1,44.94.16C334.19,128.57,339.63,130.09,340.75,136Z"/><path class="cls-2" d="M753,415.68c-.6-5.36-4.2-7.74-8.93-9C750.1,393,754.91,378.87,757.48,364a222.31,222.31,0,0,0,2.92-37.94c1.12-4.25,1.71-8.51-.12-12.73,0-1.07,0-2.14-.08-3.2a47.57,47.57,0,0,1,5.78,2.42c5.54,3.2,9.39,7.08,8.21,14.54-.84,5.29,0,10.83,0,16.25C772.69,369.12,766,393.32,753,415.68Z"/><path class="cls-2" d="M521.19,439.74c-3.21.46-4.41-2.54-6.61-3.82s-4.13-3.41-7-3.61c-2.87-4.21-1.88-8.81-1.08-13.25.51-2.78,3.18-3,5.51-3.14,5.11-.26,10.24-.2,15.35-.09a217.59,217.59,0,0,0,56.16-6,33.11,33.11,0,0,1,6.78-1.12c4.2.22,7.33,2.76,10.54,5,1.68,1.18,2.59,2.8,1.16,4.86-22.1,8.4-45.2,10.93-68.61,11.66-.7,0-1.41,0-2.11,0C521.8,430.37,521.8,430.37,521.19,439.74Z"/><path class="cls-2" d="M340.75,136c-2.47-4.53-7.94-6-10.56-10.4H439.56c1.89,4.59,7.86,5.21,10.13,10.4Z"/><path class="cls-2" d="M602,418.61c-1.19-6-7-6.29-11-8.81,1-2.84,3.86-2.79,6.05-3.57,14.79-5.28,28.23-12.61,39.08-24.25,5.44-5.84,9.14-12.86,13.74-19.28,6.19-1.1,9.1.65,11.66,7-9.25,20.37-25.26,33.79-44.89,43.38C612,415.35,607.36,417.93,602,418.61Z"/><path class="cls-2" d="M661.58,369.68c-3.25-3.1-5.73-7.56-11.38-6.38-1.29-1.29-.52-2.66,0-3.88,3.85-9,5.34-18.47,6.64-28,.2-1.54.14-3.2,1.7-4.2,1.86-3.88.48-8,.86-12,.14-1.58-.11-3.19,0-4.77.76-8.5,2-9.11,9.13-4.72A19.28,19.28,0,0,0,672,307c1.4,19.91-.13,39.42-8,58.05C663.32,366.66,662.39,368.14,661.58,369.68Z"/><path class="cls-2" d="M760.28,313.37c3.67,4.21,2.76,8.46.12,12.73Z"/><path class="cls-2" d="M254,564.58c-2.74-3.89-2.25-4.94,2.3-6.3,13.5-4,20.85-13.43,20.65-26.79s-5.18-22.87-20-27.92a54.43,54.43,0,0,0-9.78-2.26c-14.26-2.08-28.62-.44-42.92-1.1-4.32-.2-5.67,1-5.64,5.47.21,29.55.11,59.11.11,88.66,0,13.18,0,13,13.26,13.17,4.26.06,4.9-1.45,4.83-5.17-.21-11.86-.1-23.72,0-35.57,0-1.49-.69-3.28,1.08-4.34,3.55-2.14,14.72.48,17,4Q247,585,259.19,603.69c1.19,1.82,2,3.93,5.1,3.78,6-.3,12-.09,19.13-.09C273.21,592.46,263.77,578.41,254,564.58ZM219.72,548.2c-2.36.07-3-1-3-3.16.12-4.58,0-9.17,0-13.76,0-4.41.14-8.83,0-13.23-.12-2.78.43-4.19,3.68-4,7.39.32,14.79-.27,22.16,1,9.33,1.67,14.32,7,14.49,15.93.17,8.74-4.36,14-13.62,16C235.58,548.75,227.63,547.93,219.72,548.2Z"/><path class="cls-2" d="M419.21,602.71q-15.65-50.18-31.07-100.43c-.88-2.87-1.94-4-5-3.9-6,.23-12,.13-18.05,0-2.4,0-3.69.52-4.5,3.18q-15.51,51.07-31.32,102c-.8,2.58-.47,4,2.74,3.8a54.27,54.27,0,0,1,9.54,0c3.53.39,4.89-1.09,5.73-4.31,2.09-8,4.55-15.92,6.74-23.91.59-2.13,1.4-3.29,3.9-3.26,10.26.12,20.53.1,30.79,0,2.35,0,3.46.77,4.07,3.08,1.67,6.3,3.62,12.52,5.4,18.78,2.73,9.53,2.71,9.53,12.32,9.53a36,36,0,0,1,5.3,0C420.14,608.06,420.26,606.08,419.21,602.71Zm-35-40.9c-7.06-.12-14.12-.18-21.17,0-3,.08-3.71-.94-2.92-3.64,4.29-14.55,8.55-29.11,13.29-45.27,2.34,7.87,4.24,14.21,6.1,20.56,2.42,8.25,4.62,16.58,7.3,24.75C387.88,561.35,387.11,561.86,384.25,561.81Z"/><path class="cls-2" d="M693.55,602.17c-9.66-30.73-19.08-61.54-28.7-92.28-3.59-11.49-3.74-11.44-15.73-11.44-3,0-6,.21-9-.06s-4.38,1.14-5.2,3.86Q619.51,553.06,604,603.81c-.9,2.9-.77,3.77,2.37,3.61a104.3,104.3,0,0,1,10.61,0c2.78.16,4-.79,4.67-3.61,2-7.84,4.62-15.53,6.65-23.37.85-3.28,2.21-4.6,5.74-4.51,9.37.25,18.76.29,28.12,0,3.67-.12,4.94,1.52,5.75,4.55,1.64,6.13,3.46,12.2,5.11,18.33,2.31,8.57,2.27,8.58,10.86,8.58a43.74,43.74,0,0,1,5.84,0C694.33,608,694.85,606.3,693.55,602.17ZM659.73,561.8c-8.45-.09-16.9,0-26,0L648,512.84c4.7,15.85,9.1,30.66,13.45,45.48C662,559.92,663,561.83,659.73,561.8Z"/><path class="cls-2" d="M355.41,433.48c-3.55.24-4.82-3.25-7.45-4.56-2-1-3.62-2.83-6.07-3,0-36.25.06-72.51-.07-108.76,0-4.55,1.06-5.36,4.95-3,5.58,3.42,9.21,6.92,9.06,14.77C355.17,363.8,355.46,398.64,355.41,433.48Z"/><path class="cls-2" d="M454.5,286.81c.4,30.8.61,61.59,0,92.39-5.59-1.57-9.19-6.63-14.7-8.35q-.07-44.57-.19-89.15c0-3.77,1.25-3,3.69-1.63C447.14,282.16,449.82,286.17,454.5,286.81Z"/></svg>