<svg id="Layer_1" data-name="Layer 1" xmlns="http://www.w3.org/2000/svg" viewBox="0 0 1024 1024"><defs><style>.cls-1{fill:#101010;}.cls-2{fill:#1b1b1b;}.cls-3{fill:#0f1010;}.cls-4{fill:#0d0e0e;}.cls-5{fill:#ed7324;}.cls-6{fill:#747474;}.cls-7{fill:#464646;}.cls-8{fill:#ec7324;}.cls-9{fill:#383737;}.cls-10{fill:#676767;}.cls-11{fill:#282727;}.cls-12{fill:#545454;}.cls-13{fill:#252626;}.cls-14{fill:#555;}.cls-15{fill:#3b3b3b;}.cls-16{fill:#6b6b6b;}.cls-17{fill:#535454;}.cls-18{fill:#636363;}.cls-19{fill:#424343;}.cls-20{fill:#5f605f;}.cls-21{fill:#535253;}.cls-22{fill:#5e5f5f;}.cls-23{fill:#0c0d0d;}.cls-24{fill:#101111;}.cls-25{fill:#0e0f0f;}.cls-26{fill:#0e0e0e;}.cls-27{fill:#0d0f0f;}.cls-28{fill:#101212;}.cls-29{fill:#353535;}.cls-30{fill:#464647;}.cls-31{fill:#0d0e0d;}.cls-32{fill:#0f100f;}</style></defs><title>Logo</title><path class="cls-1" d="M454.48,801.88c15.74,0,31.49.17,47.24,0,3.47,0,4.95.48,4.81,4.47-.32,9.18-.21,18.39,0,27.59.06,3-.36,4.25-3.91,4.24Q398,838,293.45,838.2c-3.27,0-4.19-.82-4.11-4.1q.35-14.05,0-28.13c-.08-3.34,1-4.12,4.2-4.08,14.33.17,28.67-.07,43,.17,3.79.06,4.59-1,4.59-4.69Q341,688,341.24,578.68c0-4.57-1.66-5-5.48-5q-65.55.18-131.1,0c-2,0-5.19,1.19-5.79-1-.87-3.11-.54-6.7-.06-10,.22-1.5,2.47-.81,3.8-.81,10.62-.05,21.24,0,31.85,0,38.75,0,77.5.08,116.25-.09,4.17,0,5.14,1.07,5.14,5.18q-.18,121,0,242c0,4.09-.93,5.38-5.19,5.29-13.79-.28-27.6.17-41.39-.25-5.05-.15-5.88,1.63-5.64,6,.22,3.76-.25,6.3,5.33,6.28q88.92-.39,177.82-.06c3.91,0,5.17-.83,5-4.89-.32-7.2,0-7.13-7.31-7.24-14.65-.22-29.31.62-44-.42-.82-1.86-.41-3.84-.41-5.75q0-72.37,0-144.74a36,36,0,0,1,.57-7.9c.84-3.76,2.68-4.67,6.09-2.84,4.59,2.47,7.3,5.64,7.26,11.65-.26,44-.15,88-.11,132C453.88,798.1,453.28,800.1,454.48,801.88Z"/><path class="cls-2" d="M454.48,801.88c-2-1.68-1.11-4-1.11-6q-.08-65.46,0-130.93c0-4.8-4.45-11-8.78-12.26-2-.57-2.49.71-2.84,2.19a37.49,37.49,0,0,0-1.15,8.86q0,75-.05,150c-1.89-1.29-.93-3.23-.93-4.83q0-121-.1-242.06c0-4.38,1.38-5.07,5.3-5q40.34.24,80.69,0c3.25,0,5,1,6.61,3.8q72.49,127.49,145,255c2.34,4.11,4.8,5.8,9.74,5.77,39.81-.23,79.62-.28,119.43.06,6,.05,4.79-3.1,5-6.51.2-3.67.23-6.13-5-5.94-12.37.46-24.77.08-37.15.22-2.92,0-4.79-.63-6.35-3.37q-24.54-43.27-49.34-86.4a3,3,0,0,1-.1-1,5.66,5.66,0,0,0-.09-2.09c-.38-1.19-.81-2.45.4-3.37s2.72-.33,3.93.36a76.69,76.69,0,0,1,13.88,10.36c4.64,7.91,9.32,15.79,13.92,23.72,8.69,15,17.44,30,25.92,45.14,1.85,3.31,3.84,4.69,7.75,4.62,14.15-.25,28.31,0,42.46-.17,3.43,0,4.56.85,4.47,4.4-.25,9-.21,18,0,27.07.07,3.29-.59,4.58-4.28,4.57q-73.5-.18-147,0c-3.67,0-4.8-1.9-6.23-4.42-46.76-82.2-93.76-164.26-140.06-246.71-5.63-10-11.23-14.42-23-13.49-15.47,1.23-31.11.39-46.68.24-3.26,0-4.53.57-4.52,4.25Q454.49,689.9,454.48,801.88Z"/><path class="cls-3" d="M512.19,872.46q-153.66,0-307.32,0c-2,0-5.16,1.18-5.78-1-.87-3.1-.35-6.62-.2-10,.05-1,1.26-1,2.16-1h4.25q307,0,614.1.06c2.1,0,5.34-1.43,6.14,1.2.9,2.92.38,6.31.21,9.48-.06,1.26-1.45,1.31-2.53,1.32h-311Z"/><path class="cls-4" d="M512.35,947q153.39,0,306.79,0c2.17,0,5.5-1.28,6.31,1,1,2.83.39,6.26.25,9.41-.06,1.36-1.43,1.33-2.49,1.35-1.41,0-2.83,0-4.24,0q-306.78,0-613.57-.06c-2.16,0-5.48,1.31-6.3-1-1-2.84-.46-6.28-.31-9.45.06-1.28,1.47-1.27,2.54-1.29h311Z"/><path class="cls-5" d="M746.19,492.86c0-16.46.1-32.91-.07-49.36,0-3.55.69-4.85,4.57-4.82,13.5.08,13.5-.09,13.5,13.39,0,9.37.13,18.75-.07,28.13-.06,3.3,1,4.18,4.24,4.13,11.67-.17,23.35-.19,35,0,3.5.07,4.53-1,4.47-4.46-.19-12.21,0-24.42-.13-36.62-.05-3.25.55-4.58,4.26-4.58,13.81,0,13.81-.17,13.81,13.61,0,29.73-.09,59.45.1,89.17,0,4.4-1.14,5.66-5.55,5.57-12.56-.25-12.56-.06-12.56-12.73,0-10.44-.22-20.88.11-31.31.13-4.18-1.27-5-5.1-4.88-11.31.26-22.64.24-34,0-3.65-.08-4.81.83-4.74,4.63.24,13.27,0,26.54.17,39.81.05,3.49-1,4.44-4.49,4.45-13.59,0-13.59.17-13.59-13.28Z"/><path class="cls-6" d="M552.08,68.23c16.63.48,33,3.3,49.28,6.21,26.48,4.73,52.22,11.88,76.72,23.25,48.64,22.57,78.46,60.23,90.68,112.23,5.37,22.86,6.92,46,6.09,69.42a23.45,23.45,0,0,1-.66,3.58c-2.4-2.26-1.4-5.24-1.65-7.94a11.57,11.57,0,0,1,0-2.63c1.25-9.38-.69-17.07-10.66-20.68-.8-.29-1.18-1.26-1.7-2-1.78-9.53-2.3-19.2-4.06-28.76-10.33-56.12-41.19-95.51-94.27-117.23C633.73,92.22,604.35,86,574.39,82c-4.69-.63-9.37-1.34-14-2,1.55-1.45,2.5-2.78.1-4.46a28.19,28.19,0,0,0-5.94-3.15C552.78,71.65,550.76,70.84,552.08,68.23Z"/><path class="cls-7" d="M340.52,409.94c.08-1.94.23-3.88.23-5.82q.08-122.07.24-244.15c0-5-1.41-5.95-6.09-5.93-43.7.19-87.4.05-131.09.28-4.73,0-5.64-1.56-5.29-5.71.3-3.5-.68-6.46,5.15-6.42,49.18.31,98.37.26,147.55.12,4.31,0,5.18,1.29,5.18,5.33q-.06,134.28.21,268.56c0,4.32-1,5.64-5.48,5.62-48.65-.18-97.3-.12-145.95-.16-7.58,0-6.67,1-6.62-6.83,0-1.54-1.15-3.53,1-4.68a4.71,4.71,0,0,1,.9,1.31C203,419,203,419,211.27,419H346.65c6.93-.09,7.23-.36,7.29-7.14.11-12.91-.18-25.83.14-38.75-.24-35-.13-70,0-104.94,0-5.44-1.84-9.08-6.46-11.68-2.66-1.5-3.92-1-4,2.11-.07,1.77-.05,3.54-.05,5.3-.09,33.92.16,67.85-.12,101.77.34,12.71.18,25.43.06,38.14C343.43,406.08,344.38,409.29,340.52,409.94Z"/><path class="cls-8" d="M464.68,438.78c6.86,0,13,.08,19.12,0,2.52,0,3.21,1.73,4.21,3.38,7.63,12.49,15.27,25,23.35,38.18,5.27-8.73,10.24-17,15.2-25.19l2.18-3.64c8.63-14.37,8.9-14.5,27-12.14-3.11,5.12-6,10-9.07,14.91q-12.16,19.56-24.42,39.05a13,13,0,0,0-2.08,7.43c.1,13.81-.14,27.61.15,41.41.09,4.15-1.24,5.27-5.08,4.84-4.17-.47-9.67,1.74-12.22-.83s-.7-8.06-.74-12.26c-.11-10.08-.17-20.17,0-30.25a16.5,16.5,0,0,0-2.84-9.85c-10.73-16.6-21.3-33.31-31.92-50C466.66,442.36,465.87,440.86,464.68,438.78Z"/><path class="cls-9" d="M511.53,423.86c-24,.32-48,.63-72-.1-1-1.82-.52-3.8-.52-5.7q-.06-53.12,0-106.24c0-2.47,1.76-2.58,3.18-1.74,4.75,2.78,10,5,13.27,9.76.83,2.77.6,5.62.6,8.44q0,35.84,0,71.66c0,8.05.4,8.43,8.33,8.45,11.68,0,23.36.07,35,0,5.78,0,6.2-.61,6.37-6.47.28-9.54-.62-19.1.53-28.62,1.37-3.21,3.63-2.06,5.64-1a45.79,45.79,0,0,1,9.18,7l0,42.5C518.44,424.68,514.57,422.33,511.53,423.86Z"/><path class="cls-10" d="M478.82,139.24c40-.45,80.13-2.17,119.25,9.49,43.26,12.89,68.23,42.53,73,87.32.37,3.49,1.55,6.91.92,10.49-2.35,1.49-4.06-.18-5.73-1.32-2.89-2-4.11-.77-4.79,2.1-1.11,4.72-.35,9.53-.78,14.27-.16,1.89,1.11,5-2.73,5-1.94-3.29-1.2-6.92-1.1-10.38A119.62,119.62,0,0,0,651.12,215c-8.1-24.72-24.71-41.17-48.88-50.09-20.75-7.66-42.4-10.3-64.39-11.53-15.16-.85-30.35-.29-45.48-1.48-3.23-2.64-6.66-5-10.1-7.41C480.49,143.25,478.28,142.09,478.82,139.24Z"/><path class="cls-11" d="M731.49,728.64c-4.75-.64-7-5.22-11-7.06-2-1-3.56-2.91-6-3.26-1.75,1.43,1.39,3.93-1.18,5.06-10.37-18-20.8-35.88-31.1-53.88q-29.76-52-59.41-104.09c-.51-.9-1-1.81-1.83-3.31h40.42c3.58,1.86,6.4,4.77,9.68,7.06,1.42,1,2.75,2.26,2,4.35-8.13.07-16.26.28-24.39.13-4-.07-5,.38-2.72,4.42q29.81,51.75,59.29,103.68Q718,704,730.72,726.25C731.15,727,731.79,727.66,731.49,728.64Z"/><path class="cls-12" d="M753,355.22c-9.68,18.38-22.76,34-39.28,48.34,3,.13,4.79.28,6.63.28,33.43,0,66.86.15,100.29,0,4.7,0,5.59,1.57,5.37,5.75-.2,3.74.27,6.45-5.29,6.42-40-.21-79.95,0-119.92,0-3.65,0-10.22-5.74-10.67-9.29-.27-2.15,1.72-2.44,2.89-3.31,16.29-12.11,30.63-26.15,42.17-42.9,3.18-4.6,5.93-9.49,8.88-14.25C750,345.69,753.75,349.45,753,355.22Z"/><path class="cls-13" d="M340.52,409.94c2.16-1.34,1.26-3.5,1.27-5.3.09-13.05.07-26.1.08-39.15,2.34-1.59,4,.21,5.7,1.27a38.83,38.83,0,0,1,7.81,6.26c.05,14.5,0,29,.21,43.49.05,3.31-1.13,4.21-4.3,4.2q-73.74-.12-147.49,0c-3.16,0-4.61-.87-4.29-4.19.2-2.1.05-4.24.05-6.36,11.13-.08,22.25-.22,33.37-.22Q286.74,409.9,340.52,409.94Z"/><path class="cls-14" d="M478.82,139.24c2,3.82,6.1,5.17,9.25,7.64,1.48,1.16,3.62,1.73,3.51,4.2-2.06,1.84-4.62,1.52-7.06,1.54-7.25.08-14.49,0-21.74.06-6,.07-6.63.65-6.66,6.79-.09,19.44,0,38.88-.05,58.32,0,2.8.38,5.68-1.13,8.29-3.11,2.18-5.2-.33-7.56-1.65-1.65-.92-3.14-3.24-5-2.31-2.2,1.09-1.18,3.8-1.18,5.8-.06,24.75,0,49.5-.06,74.24,0,2.8.4,5.7-1.33,8.23q-.12,56.69-.23,113.37c-1.82-1.34-.86-3.27-.86-4.87q0-137.22.06-274.43c0-4.43,1.15-5.72,5.58-5.57C455.82,139.27,467.32,139.16,478.82,139.24Z"/><path class="cls-15" d="M673.12,573.51c-2-4.46-7-5.55-9.91-9-.64-.77-1.67-1.21-1.76-2.39,20.14-.06,40.27-.16,60.41-.18,33,0,66.09.15,99.14-.12,5.23,0,5,2.4,5,6s.29,6.06-5,6c-48.06-.21-96.13-.1-144.19-.09C675.58,573.75,674.35,573.59,673.12,573.51Z"/><path class="cls-16" d="M552.08,68.23c.13,1.53.79,2.8,2.39,2.94,3,.26,5.13,1.84,7.21,3.74,1.19,1.09,3.57,1.46,2.79,3.73-.66,1.91-2.75.82-4.13,1.3-118-7.06-236.09-1.58-354.12-3.2-8.32-.11-10-3-6.64-11.62a4.32,4.32,0,0,1,.91,1.29c2.51,7.44,2.51,7.44,10.32,7.46,43.14.1,86.27-.2,129.41.14,34.84-.13,69.69,0,105-.1-1.36-3.74-6.52-4.37-5.64-8.78,35.63-.49,71.25-.52,106.81,2.16C548.27,67.44,550.17,67.91,552.08,68.23Z"/><path class="cls-17" d="M340.73,75.53q-66.59,0-133.18.07c-8.89,0-7.94,1.13-8-7.83,0-.88,0-1.77,0-2.65Q242.4,65,285.23,65c15,0,30,.1,44.94.16C334.17,68.11,339.6,69.63,340.73,75.53Z"/><path class="cls-18" d="M753,355.22c-.6-5.36-4.2-7.74-8.93-9,6.06-13.72,10.87-27.82,13.44-42.66a223.13,223.13,0,0,0,2.92-37.93c1.12-4.26,1.71-8.51-.12-12.74,0-1.06-.06-2.13-.08-3.19a48.24,48.24,0,0,1,5.78,2.42c5.54,3.2,9.39,7.08,8.21,14.54-.84,5.29,0,10.83,0,16.25C772.66,308.65,765.93,332.85,753,355.22Z"/><path class="cls-19" d="M521.17,379.28c-3.21.46-4.41-2.54-6.62-3.82s-4.13-3.41-7-3.61c-2.86-4.21-1.88-8.81-1.07-13.25.51-2.78,3.18-3,5.51-3.14,5.11-.26,10.23-.21,15.35-.09a217.59,217.59,0,0,0,56.16-6,33.82,33.82,0,0,1,6.78-1.13c4.2.23,7.33,2.77,10.54,5.05,1.68,1.18,2.59,2.8,1.16,4.85-22.1,8.41-45.2,10.94-68.61,11.67-.7,0-1.41,0-2.12,0C521.78,369.9,521.78,369.9,521.17,379.28Z"/><path class="cls-20" d="M340.73,75.53c-2.47-4.54-8-6-10.56-10.4H439.54c1.89,4.59,7.86,5.21,10.13,10.4Z"/><path class="cls-21" d="M602,358.14c-1.19-6-7-6.28-11-8.8,1-2.84,3.86-2.79,6.05-3.58,14.78-5.27,28.23-12.6,39.08-24.24,5.44-5.84,9.14-12.86,13.74-19.28,6.19-1.1,9.1.65,11.65,7-9.24,20.37-25.25,33.79-44.88,43.38C612,354.89,607.34,357.46,602,358.14Z"/><path class="cls-22" d="M661.55,309.22c-3.24-3.1-5.72-7.56-11.37-6.38-1.29-1.29-.52-2.67,0-3.88,3.84-9,5.34-18.47,6.63-28,.21-1.54.15-3.2,1.71-4.2,1.86-3.88.48-8,.85-12,.15-1.58-.1-3.19,0-4.77.75-8.5,2-9.11,9.12-4.72a18.89,18.89,0,0,0,3.44,1.29c1.4,19.92-.14,39.43-8,58.06C663.3,306.2,662.37,307.68,661.55,309.22Z"/><path class="cls-23" d="M517.82,910.87c0-6.46.09-12.92-.05-19.37,0-2.72.79-3.73,3.63-3.6,2.59.12,4.28.19,4.21,3.62-.2,10.24,0,20.49-.12,30.74,0,1.71,1.14,4.27-1.76,4.79-2.26.41-4.49.24-6.17-2-4.46-5.9-9.07-11.69-13.65-17.51-1-1.2-2-2.31-3.85-4.4,0,7.29-.14,13.54.07,19.78.11,3.2-.86,4.28-4.17,4.32s-3.71-1.37-3.68-4.1c.11-10.25,0-20.49.09-30.74,0-1.52-1.08-3.88,1.53-4.34,2.22-.39,4.45-.37,6.17,1.88,5,6.6,10.2,13.06,15.31,19.58.42.52.83,1.06,1.25,1.59Z"/><path class="cls-24" d="M381.9,907.57c0,5.31-.18,10.62.06,15.91.17,3.84-2.08,3.59-4.73,3.74-3,.17-4.31-.81-3.89-3.84a6.25,6.25,0,0,0,0-1.06c-.14-12.85-.13-12.78-13.09-11.68-2.26.2-3.17.86-3.07,3.14.13,2.83,0,5.66,0,8.49s.31,5.1-4,5c-3.84-.07-4.76-1.34-4.69-4.92.19-9.9.13-19.81,0-29.71,0-3.06.26-4.91,4.21-4.84,3.54.08,4.45,1.1,4.47,4.55.09,12.62.22,12.53,12.83,11.79,2.6-.15,3.41-1,3.26-3.45-.16-2.64,0-5.3-.05-8s-.33-5.08,3.95-4.94c3.79.12,4.88,1.27,4.69,4.9C381.7,897.66,381.9,902.62,381.9,907.57Z"/><path class="cls-25" d="M565.42,915.86c0,8.11-.93,9.64-8.52,11-7.91,1.43-15.64.92-21.36-5.82-5.21-6.16-6.07-13.24-3.62-20.81,4.56-14,22.52-15.19,31.36-9,1.81,1.25,2.31,2.62.8,4.37-1.17,1.35-1.88,3.75-4.5,2.21a20.72,20.72,0,0,0-1.85-1c-5.45-2.48-11.48-1.93-14.87,1.35-3.65,3.53-4.65,10.41-2.28,15.77s9.51,8.06,15.28,5.9c2.26-.85,1.45-2.47,1.64-3.9.24-1.8-.56-2.63-2.41-2.39-3.21.41-3.9-1.38-3.81-4.14.1-3.28,2.49-2.21,4.22-2.42a9.37,9.37,0,0,1,1.06,0C565.42,906.87,565.42,906.87,565.42,915.86Z"/><path class="cls-25" d="M770.79,907.37c0-5.29.14-10.59,0-15.88-.11-2.85.94-3.64,3.66-3.56,6,.17,12,.14,18,0,2.63-.06,3.88.61,3.82,3.52-.06,2.63-.73,4-3.61,3.79-2.63-.17-5.35.34-7.92-.11-5.23-.92-5.69,1.78-5.46,5.91.14,2.37.86,3.07,3.09,2.9,1.93-.16,3.89.07,5.82-.06,2.61-.17,4.3.11,4.25,3.53,0,3.14-1.2,4.08-4.08,3.78-1.4-.15-2.84.11-4.23-.06-3.33-.4-5,.23-4.92,4.33.05,3.9,1.31,4.83,4.83,4.45,2.62-.28,5.3.05,7.94-.08s4.33.21,4.31,3.59c0,3.18-1.34,3.84-4.16,3.76-5.82-.16-11.66-.19-17.47,0-3.07.11-4-1-3.87-4C770.93,918,770.79,912.67,770.79,907.37Z"/><path class="cls-26" d="M612.56,907.49c0-5.49.08-11,0-16.45,0-2.24.66-3.15,3-3.1q9.54.18,19.1,0c2.65-.05,2.78,1.46,2.73,3.39s.28,4-2.81,3.91c-3.36-.13-6.75.26-10.07-.1-4.28-.46-3.29,2.35-3.42,4.68s-.24,4.66,3.38,4.14c1.73-.25,3.54,0,5.3-.06,2.53-.15,4.29-.06,4.33,3.46,0,3.69-1.68,4.09-4.53,3.83-1.23-.11-2.49.11-3.71,0-3.34-.43-5,.21-4.93,4.33.05,3.91,1.33,4.83,4.85,4.44,2.44-.28,5,.05,7.42-.08s4.32.11,4.29,3.54c0,3.1-1.1,3.93-4,3.82q-8.49-.3-17,0c-2.92.11-4.1-.67-4-3.8C612.73,918.1,612.56,912.79,612.56,907.49Z"/><path class="cls-4" d="M694.22,915c3.1-8,5.83-15.18,8.6-22.31.69-1.77,1.1-4.07,3.22-4.48s4.65-.7,6.13.29c2.1,1.39-.22,3.43-.86,5-3.87,10-7.89,19.91-11.84,29.86-1,2.42-2.07,4-5.3,3.91S690,926,689,923.46c-3.87-10-8.09-19.84-11.82-29.87-.57-1.52-4-4.17-.34-5.35,2.86-.92,6.7-1.39,8.28,3.22,2,6,4.54,11.78,6.83,17.67C692.57,910.72,693.18,912.3,694.22,915Z"/><path class="cls-25" d="M814.52,887.82a13,13,0,0,1,7.73,2c1.94,1.12,3.76,1.94,2,4.8-1.39,2.3-2.57,3.83-5.31,1.92a7.84,7.84,0,0,0-2.37-1.13c-2.82-.79-6.07-1.34-7.37,1.88-1.52,3.73,1.71,4.7,4.52,5.58,1.5.47,3,1.12,4.42,1.71,5.92,2.35,8.16,5.55,7.79,11.08A12.22,12.22,0,0,1,816.45,927a19,19,0,0,1-14.7-2.61c-2.22-1.45-2.87-2.81-1.29-5.14,1.39-2.07,2.95-3.12,5.2-1.48a11,11,0,0,0,7.92,2.23c2.17-.22,3.71-.94,4-3.36.26-2.2-.44-3.82-2.6-4.61-1.65-.59-3.32-1.11-5-1.7-7.28-2.6-10.32-6.68-9.43-12.61C801.51,891.57,806.76,887.76,814.52,887.82Z"/><path class="cls-25" d="M595.51,887.82a12.32,12.32,0,0,1,7.7,1.88c1.68,1,4.19,1.56,2.42,4.66-1.42,2.48-2.7,4.15-5.68,2.11a9.6,9.6,0,0,0-2.89-1.22c-2.72-.72-5.67-.86-6.74,2.23-1.21,3.48,1.74,4.45,4.34,5.33,1.49.5,3,1.12,4.45,1.62,5,1.67,8.13,4.81,8.08,10.39a12,12,0,0,1-8.76,11.88,18.42,18.42,0,0,1-15.68-2.45c-2-1.29-2.65-2.62-1.21-4.78,1.3-1.94,2.66-3.51,5.09-1.83a11.66,11.66,0,0,0,8.42,2.34c2-.26,3.41-1,3.72-3.07s0-3.91-2.33-4.74c-1.81-.66-3.64-1.26-5.45-1.92-7.14-2.58-10.17-6.82-9.17-12.79S588,887.8,595.51,887.82Z"/><path class="cls-25" d="M752.84,887.86a14.26,14.26,0,0,1,9.84,2.53c1.45,1,4.42,1.68,2.16,4.69-1.55,2.07-2.57,3.83-5.84,2-5.78-3.23-11.45-2.26-14.92,1.75-3.81,4.41-4,12.37-.4,17.22a10.74,10.74,0,0,0,14.63,2.11c3.23-2.24,4.82-.84,6.48,1.44,2.15,2.93-1.08,3.68-2.4,4.68-5.8,4.43-16.18,4.18-22.35-.23-5.93-4.24-9.11-13.75-7.13-21.33,2.17-8.34,8.75-14.25,16.56-14.84C750.52,887.79,751.58,887.86,752.84,887.86Z"/><path class="cls-4" d="M329.62,927.38a18.27,18.27,0,0,1-10.44-3.11c-2.16-1.39-2.81-2.75-1.17-5.1,1.46-2.1,3-3,5.19-1.41a11.14,11.14,0,0,0,7.91,2.24c2.21-.2,3.67-1.17,4.16-3.35s-.71-3.75-2.68-4.56c-2.26-.92-4.6-1.66-6.92-2.45-5.15-1.75-7.62-5.28-7.44-10.76s3.34-9,8.15-10.49A16.15,16.15,0,0,1,340.14,890c1.54,1,3.6,1.74,1.78,4.36-1.35,1.94-2.1,4.22-5.19,2.29a9.14,9.14,0,0,0-6.48-1.71c-1.86.33-3.46,1.09-3.93,3-.52,2.16,1,3.28,2.66,4s3.63,1.27,5.43,2c7.68,2.91,10,6.45,8.73,13.41C342,923.6,336.88,927.4,329.62,927.38Z"/><path class="cls-27" d="M199.42,907.62c0-5.31.17-10.63-.06-15.92-.15-3.15,1.06-3.88,4-3.78,5.83.2,11.68.18,17.51,0,2.74-.09,3.79.77,3.74,3.57-.05,2.56-.58,4-3.57,3.76-3.34-.23-6.73.16-10.07-.1-4.11-.32-3.05,2.56-2.91,4.55s-1.68,5.42,2.89,5.13c2.29-.14,4.6.07,6.89-.05,2.53-.12,4.26-.09,4.24,3.46s-1.85,3.43-4.31,3.47c-9.75.16-10,.21-9.68,10,.15,4.55-1.33,5.89-5.67,5.52-2.35-.2-3-1-3-3.17C199.48,918.59,199.42,913.1,199.42,907.62Z"/><path class="cls-4" d="M726.24,907.57c0,5.48-.16,11,.06,16.43.13,3.29-1.74,3.25-4,3.16s-4.64.57-4.58-3.21q.22-16.43,0-32.85c-.05-3.85,2.47-3,4.64-3.13s4.11-.08,4,3.18C726.07,896.62,726.24,902.1,726.24,907.57Z"/><path class="cls-28" d="M475.48,907.54c0-5.48.15-11-.06-16.43-.13-3.27,1.72-3.27,4-3.15s4.69-.64,4.64,3.17q-.22,16.44,0,32.87c0,3.8-2.46,3-4.67,3.17s-4.09,0-4-3.2C475.63,918.5,475.48,913,475.48,907.54Z"/><path class="cls-23" d="M398.58,907.76c0,5.3-.17,10.62.06,15.92.15,3.47-1.74,3.48-4.3,3.53-2.75.06-4.23-.39-4.18-3.67.16-10.61.2-21.23,0-31.84-.07-3.76,1.86-3.68,4.59-3.8,3.09-.14,4,1,3.91,3.94C398.45,897.14,398.58,902.45,398.58,907.76Z"/><path class="cls-6" d="M760.26,252.9c3.67,4.22,2.76,8.47.12,12.74Z"/><path class="cls-8" d="M254,504.12c-2.75-3.89-2.25-4.94,2.3-6.3,13.49-4,20.85-13.43,20.65-26.79s-5.18-22.87-20-27.92a54.43,54.43,0,0,0-9.78-2.26c-14.26-2.09-28.62-.44-42.92-1.1-4.32-.2-5.67.95-5.64,5.47.21,29.55.11,59.11.11,88.66,0,13.18,0,13,13.26,13.16,4.26.07,4.89-1.45,4.83-5.16-.21-11.86-.11-23.72-.05-35.57,0-1.49-.69-3.28,1.08-4.34,3.54-2.14,14.72.48,17,4q12.15,18.65,24.31,37.29c1.2,1.82,2,3.93,5.11,3.78,6-.3,12-.09,19.13-.09C273.18,532,263.74,518,254,504.12ZM219.7,487.73c-2.37.08-3-.94-3-3.15.11-4.58,0-9.17,0-13.76,0-4.41.13-8.83-.05-13.23-.11-2.78.43-4.19,3.69-4,7.39.32,14.79-.27,22.16,1,9.33,1.67,14.32,7,14.49,15.93.17,8.74-4.36,14-13.63,16C235.56,488.29,227.61,487.47,219.7,487.73Z"/><path class="cls-8" d="M419.19,542.25q-15.65-50.17-31.07-100.43c-.88-2.87-1.94-4-5-3.9-6,.23-12,.13-18,0-2.41,0-3.69.52-4.5,3.18q-15.51,51.08-31.33,102c-.79,2.58-.47,4,2.75,3.8a54.27,54.27,0,0,1,9.54,0c3.52.39,4.89-1.09,5.73-4.31,2.09-8,4.55-15.93,6.74-23.91.59-2.13,1.4-3.29,3.9-3.26,10.26.12,20.53.1,30.79,0,2.35,0,3.46.77,4.07,3.08,1.67,6.29,3.61,12.52,5.4,18.78,2.72,9.53,2.71,9.53,12.32,9.53a37.46,37.46,0,0,1,5.3,0C420.12,547.6,420.24,545.62,419.19,542.25Zm-35-40.9c-7.05-.12-14.11-.18-21.16,0-3,.09-3.71-.93-2.92-3.63,4.29-14.55,8.55-29.11,13.29-45.27,2.34,7.87,4.24,14.21,6.1,20.56,2.42,8.25,4.62,16.58,7.3,24.74C387.85,500.89,387.09,501.4,384.22,501.35Z"/><path class="cls-8" d="M693.52,541.71c-9.65-30.73-19.07-61.54-28.69-92.28C661.24,437.94,661.09,438,649.1,438c-3,0-6,.22-9-.05s-4.38,1.14-5.21,3.86q-15.37,50.81-31,101.56c-.89,2.9-.76,3.77,2.38,3.61a101.49,101.49,0,0,1,10.61,0c2.78.15,4-.79,4.67-3.61,2-7.84,4.62-15.53,6.65-23.37.85-3.28,2.21-4.6,5.74-4.51,9.37.25,18.75.29,28.12,0,3.67-.12,4.94,1.52,5.75,4.55,1.64,6.12,3.46,12.2,5.11,18.33,2.31,8.57,2.27,8.58,10.86,8.58a43.57,43.57,0,0,1,5.83.05C694.31,547.58,694.82,545.84,693.52,541.71Zm-33.81-40.37c-8.45-.1-16.91,0-26,0,4.77-16.36,9.39-32.16,14.28-48.92,4.69,15.85,9.09,30.66,13.45,45.48C661.94,499.45,663,501.37,659.71,501.34Z"/><path class="cls-29" d="M355.38,373c-3.54.24-4.81-3.26-7.44-4.57-2-1-3.62-2.82-6.07-3,0-36.25.06-72.51-.07-108.76,0-4.55,1.06-5.36,4.95-3,5.58,3.42,9.2,6.92,9.06,14.77C355.15,303.34,355.44,338.18,355.38,373Z"/><path class="cls-30" d="M454.48,226.35c.4,30.8.61,61.59,0,92.39-5.59-1.57-9.2-6.63-14.7-8.35q-.07-44.56-.19-89.15c0-3.77,1.24-3,3.68-1.63C447.12,221.7,449.8,225.71,454.48,226.35Z"/><path class="cls-4" d="M247.1,887.82c-11.52.07-19.12,8.06-19,20,.07,11.76,7.87,19.56,19.56,19.56s19.93-8.28,19.78-20.06S259.12,887.74,247.1,887.82Zm.48,32c-7.15,0-10.9-4.3-10.87-12.43,0-8,4-12.31,11.19-12.18,6.7.13,10.78,4.75,10.82,12.25C258.75,915.28,254.63,919.86,247.58,919.85Z"/><path class="cls-31" d="M664.19,910.77c6.4-5.11,8.18-9.34,6.37-14.95-1.62-5-6.63-7.74-14.25-7.83-2.83,0-5.67.2-8.47-.06-3.58-.33-4.51,1.17-4.45,4.56.19,9.88.15,19.76,0,29.64,0,3.27.28,5.11,4.45,5.18,4.49.08,4.29-2.25,4.14-5.24a58.47,58.47,0,0,1,0-6.35c.07-1.09-.75-2.62.91-3.18s3.05.21,4,1.7a75,75,0,0,1,4.83,7.57c2.64,5.49,6.88,6.28,12.88,4.72C671.11,921.19,667.77,916.15,664.19,910.77ZM655.26,906c-5.51.53-2.24-3.8-3.26-5.13,0-3.27-.91-6.44,3.84-5.84,3.47.43,6.85.55,6.69,5.35S658.94,905.65,655.26,906Z"/><path class="cls-4" d="M302.16,923.69c-2.91-4.21-5.75-8.47-8.8-13,6.18-4.57,8.3-9.19,6.67-14.32-1.72-5.4-6.37-8.24-13.88-8.39-2.65-.06-5.33.21-7.95-.07-4-.43-5.59.75-5.42,5.17.38,9.54.2,19.1.08,28.65,0,3.29-.13,5.58,4.52,5.58s4.15-2.48,4.07-5.37c-.06-2.12-.1-4.25,0-6.36.07-1.08-.72-2.63,1-3.1a3,3,0,0,1,3.54,1.61c1.89,3,4.18,5.72,5.77,8.84,1.95,3.84,4.95,4.45,8.78,4.26C304,927,303.63,925.82,302.16,923.69ZM291.92,900.4c-.23,4.59-3.67,5.35-7.44,5.6-5,.34-2.29-3.51-3.08-5.27.26-2.7-1.27-6.24,3.74-5.68C288.66,895.44,292.17,895.69,291.92,900.4Z"/><path class="cls-32" d="M460.29,888.91c-5.54-1.79-11.23-.61-16.85-.91-2.7-.14-2.51,1.9-2.51,3.67,0,5.3,0,10.61,0,15.91,0,5.13.14,10.26-.05,15.38-.13,3.18.93,4.06,4.18,4.33,5.46.44,4.4-3,4.41-6,0-7.29,0-7.29,7.06-7.67.35,0,.71,0,1.06-.05,6.41-.55,11-4.89,11.62-11Q470.25,892.12,460.29,888.91Zm-7,18.15c-5.32.38-3.61-3.29-3.9-5.91.25-2.82-1.45-6.73,4.2-6.14,3.89.4,7,1.08,7.09,5.82C460.78,904.88,458.19,906.71,453.34,907.06Z"/><path class="cls-4" d="M426.85,889c-5.69-1.88-11.56-.69-17.35-1-2.43-.13-2.27,1.69-2.28,3.29,0,5.29,0,10.59,0,15.89s.15,10.6-.06,15.88c-.13,3.23.95,4,4.18,4.23,5.44.35,4.4-3.12,4.41-6.15,0-7.17,0-7.17,7.1-7.58.36,0,.71,0,1.06,0,5.94-.55,10.6-4.68,11.33-10C436.25,896,433.45,891.15,426.85,889Zm-7.35,18c-7,0-2.82-5.23-3.65-8-1-3.22.86-4.45,3.5-3.89,4.39.07,7.53.94,7.45,5.79S423.7,907,419.5,907Z"/></svg>